<?xml version="1.0" standalone="no"?>
<!DOCTYPE svg PUBLIC "-//W3C//DTD SVG 20010904//EN"
 "http://www.w3.org/TR/2001/REC-SVG-20010904/DTD/svg10.dtd">
<svg version="1.0" xmlns="http://www.w3.org/2000/svg"
 width="32.000000pt" height="32.000000pt" viewBox="0 0 32.000000 32.000000"
 preserveAspectRatio="xMidYMid meet">

<g transform="translate(0.000000,32.000000) scale(0.100000,-0.100000)"
fill="#000000" stroke="none">
<path d="M117 314 c-4 -4 -7 -18 -7 -32 0 -13 -10 -32 -22 -42 -33 -26 -38
-130 -9 -193 l21 -47 60 0 60 0 21 47 c28 62 24 167 -8 193 -12 9 -23 30 -25
46 -3 26 -7 29 -43 32 -23 2 -44 0 -48 -4z m83 -29 c0 -22 -4 -25 -40 -25 -36
0 -40 3 -40 25 0 23 4 25 40 25 36 0 40 -2 40 -25z m14 -45 c25 -9 26 -12 26
-99 0 -103 -6 -111 -82 -111 -62 0 -80 16 -86 78 -7 73 5 121 31 132 30 12 80
12 111 0z m-26 -227 c-15 -2 -42 -2 -60 0 -18 2 -6 4 27 4 33 0 48 -2 33 -4z"/>
<path d="M137 294 c-15 -15 -6 -24 24 -24 20 0 29 4 27 13 -5 14 -40 21 -51
11z m30 -10 c-3 -3 -12 -4 -19 -1 -8 3 -5 6 6 6 11 1 17 -2 13 -5z"/>
<path d="M141 182 c-6 -11 -8 -28 -4 -38 4 -11 3 -15 -5 -10 -16 10 -26 -32
-11 -50 16 -19 69 -14 82 7 8 13 6 24 -9 44 -10 15 -24 37 -31 48 -11 19 -11
19 -22 -1z m49 -86 c-16 -20 -44 -20 -60 -1 -10 12 -9 16 5 21 12 5 15 14 10
33 l-6 26 32 -32 c27 -27 30 -34 19 -47z"/>
</g>
</svg>
