<?xml version="1.0" standalone="no"?>
<!DOCTYPE svg PUBLIC "-//W3C//DTD SVG 20010904//EN"
 "http://www.w3.org/TR/2001/REC-SVG-20010904/DTD/svg10.dtd">
<svg version="1.0" xmlns="http://www.w3.org/2000/svg"
 width="32.000000pt" height="32.000000pt" viewBox="0 0 32.000000 32.000000"
 preserveAspectRatio="xMidYMid meet">
<metadata>
Created by potrace 1.10, written by Peter Selinger 2001-2011
</metadata>
<g transform="translate(0.000000,32.000000) scale(0.100000,-0.100000)"
fill="#000000" stroke="none">
<path d="M117 314 c-4 -4 -7 -18 -7 -32 0 -14 -11 -33 -26 -45 -25 -19 -26
-24 -22 -101 2 -57 9 -89 22 -108 16 -25 24 -28 76 -28 58 0 58 0 79 40 15 30
21 59 21 110 0 61 -3 71 -24 88 -13 10 -26 32 -28 48 -3 26 -7 29 -43 32 -23
2 -44 0 -48 -4z m83 -29 c0 -22 -4 -25 -40 -25 -36 0 -40 3 -40 25 0 23 4 25
40 25 36 0 40 -2 40 -25z m28 -57 c7 -7 12 -42 12 -87 0 -92 -13 -111 -77
-111 -76 0 -83 9 -83 103 0 51 5 88 12 95 16 16 120 16 136 0z"/>
<path d="M137 294 c-15 -15 -6 -24 24 -24 20 0 29 4 27 13 -5 14 -40 21 -51
11z"/>
<path d="M143 188 c-5 -7 -15 -30 -22 -51 -15 -46 -3 -67 38 -67 54 0 67 42
26 80 -14 13 -23 30 -21 37 7 17 -9 17 -21 1z m47 -79 c0 -25 -38 -35 -58 -15
-15 15 -15 16 2 16 15 0 17 5 12 32 l-6 32 25 -24 c14 -13 25 -31 25 -41z"/>
</g>
</svg>
